TITLE ""
FILE "DISC1Track29.mp3" MP3
  TRACK 01 AUDIO
    TITLE "DISC1Track29_01"
    INDEX 01 00:00:00
  TRACK 02 AUDIO
    TITLE "DISC1Track29_02"
    INDEX 01 00:03:13
  TRACK 03 AUDIO
    TITLE "DISC1Track29_03"
    INDEX 01 00:03:34
  TRACK 04 AUDIO
    TITLE "DISC1Track29_04"
    INDEX 01 00:06:21
  TRACK 05 AUDIO
    TITLE "DISC1Track29_05"
    INDEX 01 00:08:22
  TRACK 06 AUDIO
    TITLE "DISC1Track29_06"
    INDEX 01 00:10:15
  TRACK 07 AUDIO
    TITLE "DISC1Track29_07"
    INDEX 01 00:10:38
  TRACK 08 AUDIO
    TITLE "DISC1Track29_08"
    INDEX 01 00:13:19
  TRACK 09 AUDIO
    TITLE "DISC1Track29_09"
    INDEX 01 00:15:29
  TRACK 10 AUDIO
    TITLE "DISC1Track29_10"
    INDEX 01 00:17:34
  TRACK 11 AUDIO
    TITLE "DISC1Track29_11"
    INDEX 01 00:17:56
  TRACK 12 AUDIO
    TITLE "DISC1Track29_12"
    INDEX 01 00:19:06
  TRACK 13 AUDIO
    TITLE "DISC1Track29_13"
    INDEX 01 00:21:20
  TRACK 14 AUDIO
    TITLE "DISC1Track29_14"
    INDEX 01 00:23:19
  TRACK 15 AUDIO
    TITLE "DISC1Track29_15"
    INDEX 01 00:23:54
  TRACK 16 AUDIO
    TITLE "DISC1Track29_16"
    INDEX 01 00:27:31
  TRACK 17 AUDIO
    TITLE "DISC1Track29_17"
    INDEX 01 00:30:00
  TRACK 18 AUDIO
    TITLE "DISC1Track29_18"
    INDEX 01 00:32:38
  TRACK 19 AUDIO
    TITLE "DISC1Track29_19"
    INDEX 01 00:32:61
  TRACK 20 AUDIO
    TITLE "DISC1Track29_20"
    INDEX 01 00:37:11
  TRACK 21 AUDIO
    TITLE "DISC1Track29_21"
    INDEX 01 00:40:65
  TRACK 22 AUDIO
    TITLE "DISC1Track29_22"
    INDEX 01 00:44:43
  TRACK 23 AUDIO
    TITLE "DISC1Track29_23"
    INDEX 01 00:44:66
  TRACK 24 AUDIO
    TITLE "DISC1Track29_24"
    INDEX 01 00:47:45
  TRACK 25 AUDIO
    TITLE "DISC1Track29_25"
    INDEX 01 00:50:18
  TRACK 26 AUDIO
    TITLE "DISC1Track29_26"
    INDEX 01 00:52:68
  TRACK 27 AUDIO
    TITLE "DISC1Track29_27"
    INDEX 01 00:53:14
  TRACK 28 AUDIO
    TITLE "DISC1Track29_28"
    INDEX 01 00:55:41
  TRACK 29 AUDIO
    TITLE "DISC1Track29_29"
    INDEX 01 00:57:47
  TRACK 30 AUDIO
    TITLE "DISC1Track29_30"
    INDEX 01 00:59:48
  TRACK 31 AUDIO
    TITLE "DISC1Track29_31"
    INDEX 01 00:59:74
  TRACK 32 AUDIO
    TITLE "DISC1Track29_32"
    INDEX 01 01:01:28
  TRACK 33 AUDIO
    TITLE "DISC1Track29_33"
    INDEX 01 01:03:13
  TRACK 34 AUDIO
    TITLE "DISC1Track29_34"
    INDEX 01 01:04:69
  TRACK 35 AUDIO
    TITLE "DISC1Track29_35"
    INDEX 01 01:05:16
  TRACK 36 AUDIO
    TITLE "DISC1Track29_36"
    INDEX 01 01:08:08
  TRACK 37 AUDIO
    TITLE "DISC1Track29_37"
    INDEX 01 01:10:03
  TRACK 38 AUDIO
    TITLE "DISC1Track29_38"
    INDEX 01 01:12:00
  TRACK 39 AUDIO
    TITLE "DISC1Track29_39"
    INDEX 01 01:12:24
  TRACK 40 AUDIO
    TITLE "DISC1Track29_40"
    INDEX 01 01:14:48
  TRACK 41 AUDIO
    TITLE "DISC1Track29_41"
    INDEX 01 01:16:72
  TRACK 42 AUDIO
    TITLE "DISC1Track29_42"
    INDEX 01 01:19:14
  TRACK 43 AUDIO
    TITLE "DISC1Track29_43"
    INDEX 01 01:19:39
  TRACK 44 AUDIO
    TITLE "DISC1Track29_44"
    INDEX 01 01:21:34
  TRACK 45 AUDIO
    TITLE "DISC1Track29_45"
    INDEX 01 01:23:39
  TRACK 46 AUDIO
    TITLE "DISC1Track29_46"
    INDEX 01 01:25:38
  TRACK 47 AUDIO
    TITLE "DISC1Track29_47"
    INDEX 01 01:25:61
  TRACK 48 AUDIO
    TITLE "DISC1Track29_48"
    INDEX 01 01:28:58
  TRACK 49 AUDIO
    TITLE "DISC1Track29_49"
    INDEX 01 01:31:17
  TRACK 50 AUDIO
    TITLE "DISC1Track29_50"
    INDEX 01 01:33:45
  TRACK 51 AUDIO
    TITLE "DISC1Track29_51"
    INDEX 01 01:33:69
  TRACK 52 AUDIO
    TITLE "DISC1Track29_52"
    INDEX 01 01:37:04
  TRACK 53 AUDIO
    TITLE "DISC1Track29_53"
    INDEX 01 01:39:67
  TRACK 54 AUDIO
    TITLE "DISC1Track29_54"
    INDEX 01 01:42:46
  TRACK 55 AUDIO
    TITLE "DISC1Track29_55"
    INDEX 01 01:42:72
  TRACK 56 AUDIO
    TITLE "DISC1Track29_56"
    INDEX 01 01:44:49
  TRACK 57 AUDIO
    TITLE "DISC1Track29_57"
    INDEX 01 01:46:40
  TRACK 58 AUDIO
    TITLE "DISC1Track29_58"
    INDEX 01 01:48:21
